<svg width="12" height="13" viewBox="0 0 12 13" fill="none" xmlns="http://www.w3.org/2000/svg">
<path d="M6 10.75C5.03 10.75 4.20417 10.4157 3.5225 9.74701C2.84083 9.07835 2.5 8.26435 2.5 7.30501C2.5 6.84735 2.5925 6.40935 2.7775 5.99101C2.9625 5.57268 3.21033 5.19935 3.521 4.87101L5.435 2.99501C5.51567 2.92168 5.60467 2.86501 5.702 2.82501C5.799 2.78501 5.89783 2.76501 5.9985 2.76501C6.09917 2.76501 6.19867 2.78501 6.297 2.82501C6.39533 2.86501 6.485 2.92168 6.566 2.99501L8.4795 4.87101C8.7905 5.19935 9.03833 5.57268 9.223 5.99101C9.40767 6.40935 9.5 6.84818 9.5 7.30751C9.5 8.26818 9.15917 9.08218 8.4775 9.74951C7.79583 10.4168 6.97 10.7503 6 10.75ZM3 7.31001H9C9 6.91801 8.925 6.54385 8.775 6.18751C8.625 5.83118 8.40833 5.51868 8.125 5.25001L6.2115 3.36151C6.15383 3.30385 6.08333 3.27501 6 3.27501C5.91667 3.27501 5.84617 3.30385 5.7885 3.36151L3.875 5.25001C3.59167 5.51835 3.375 5.83085 3.225 6.18751C3.075 6.54418 3 6.91868 3 7.31001Z" fill="#858585"/>
</svg>
