<svg width="12" height="13" viewBox="0 0 12 13" fill="none" xmlns="http://www.w3.org/2000/svg">
<path fill-rule="evenodd" clip-rule="evenodd" d="M3.125 3.25C3.125 2.92861 3.2203 2.61443 3.39886 2.3472C3.57742 2.07997 3.83121 1.87169 4.12814 1.7487C4.42507 1.6257 4.7518 1.59352 5.06702 1.65622C5.38224 1.71893 5.67179 1.87369 5.89905 2.10095C6.12631 2.32821 6.28108 2.61776 6.34378 2.93298C6.40648 3.2482 6.3743 3.57493 6.2513 3.87186C6.12831 4.16879 5.92003 4.42258 5.6528 4.60114C5.38557 4.7797 5.07139 4.875 4.75 4.875H1.5C1.40054 4.875 1.30516 4.83549 1.23483 4.76517C1.16451 4.69484 1.125 4.59946 1.125 4.5C1.125 4.40054 1.16451 4.30516 1.23483 4.23484C1.30516 4.16451 1.40054 4.125 1.5 4.125H4.75C4.92306 4.125 5.09223 4.07368 5.23612 3.97754C5.38002 3.88139 5.49217 3.74473 5.55839 3.58485C5.62462 3.42496 5.64195 3.24903 5.60819 3.0793C5.57443 2.90956 5.49109 2.75365 5.36872 2.63128C5.24635 2.50891 5.09044 2.42558 4.9207 2.39181C4.75097 2.35805 4.57504 2.37538 4.41515 2.44161C4.25527 2.50783 4.11861 2.61998 4.02246 2.76388C3.92632 2.90777 3.875 3.07694 3.875 3.25V3.4285C3.875 3.52796 3.83549 3.62334 3.76517 3.69367C3.69484 3.76399 3.59946 3.8035 3.5 3.8035C3.40054 3.8035 3.30516 3.76399 3.23483 3.69367C3.16451 3.62334 3.125 3.52796 3.125 3.4285V3.25ZM7.125 4.25C7.125 3.82972 7.24963 3.41887 7.48313 3.06941C7.71663 2.71996 8.04851 2.44759 8.4368 2.28676C8.82509 2.12592 9.25236 2.08384 9.66457 2.16583C10.0768 2.24783 10.4554 2.45021 10.7526 2.7474C11.0498 3.04459 11.2522 3.42322 11.3342 3.83543C11.4162 4.24764 11.3741 4.67491 11.2132 5.0632C11.0524 5.4515 10.78 5.78338 10.4306 6.01687C10.0811 6.25037 9.67029 6.375 9.25 6.375H1C0.900544 6.375 0.805161 6.33549 0.734835 6.26517C0.664509 6.19484 0.625 6.09946 0.625 6C0.625 5.90054 0.664509 5.80516 0.734835 5.73484C0.805161 5.66451 0.900544 5.625 1 5.625H9.25C9.52195 5.625 9.78779 5.54436 10.0139 5.39327C10.24 5.24218 10.4163 5.02744 10.5203 4.77619C10.6244 4.52494 10.6516 4.24848 10.5986 3.98175C10.5455 3.71503 10.4146 3.47003 10.2223 3.27773C10.03 3.08543 9.78497 2.95448 9.51825 2.90142C9.25153 2.84837 8.97506 2.8756 8.72381 2.97967C8.47256 3.08374 8.25782 3.25997 8.10673 3.48609C7.95564 3.71221 7.875 3.97805 7.875 4.25V4.5C7.875 4.59946 7.83549 4.69484 7.76516 4.76517C7.69484 4.83549 7.59946 4.875 7.5 4.875C7.40054 4.875 7.30516 4.83549 7.23484 4.76517C7.16451 4.69484 7.125 4.59946 7.125 4.5V4.25ZM1.625 7.5C1.625 7.40054 1.66451 7.30516 1.73483 7.23484C1.80516 7.16451 1.90054 7.125 2 7.125H9.25C9.67029 7.125 10.0811 7.24963 10.4306 7.48313C10.78 7.71663 11.0524 8.04851 11.2132 8.4368C11.3741 8.82509 11.4162 9.25236 11.3342 9.66457C11.2522 10.0768 11.0498 10.4554 10.7526 10.7526C10.4554 11.0498 10.0768 11.2522 9.66457 11.3342C9.25236 11.4162 8.82509 11.3741 8.4368 11.2132C8.04851 11.0524 7.71663 10.78 7.48313 10.4306C7.24963 10.0811 7.125 9.67029 7.125 9.25V9C7.125 8.90054 7.16451 8.80516 7.23484 8.73484C7.30516 8.66451 7.40054 8.625 7.5 8.625C7.59946 8.625 7.69484 8.66451 7.76516 8.73484C7.83549 8.80516 7.875 8.90054 7.875 9V9.25C7.875 9.52195 7.95564 9.78779 8.10673 10.0139C8.25782 10.24 8.47256 10.4163 8.72381 10.5203C8.97506 10.6244 9.25153 10.6516 9.51825 10.5986C9.78497 10.5455 10.03 10.4146 10.2223 10.2223C10.4146 10.03 10.5455 9.78497 10.5986 9.51825C10.6516 9.25153 10.6244 8.97506 10.5203 8.72381C10.4163 8.47256 10.24 8.25782 10.0139 8.10673C9.78779 7.95564 9.52195 7.875 9.25 7.875H2C1.90054 7.875 1.80516 7.83549 1.73483 7.76517C1.66451 7.69484 1.625 7.59946 1.625 7.5Z" fill="#858585"/>
</svg>
