<svg width="11" height="11" viewBox="0 0 11 11" fill="none" xmlns="http://www.w3.org/2000/svg">
<path d="M5.06245 2.71875V8.5625M6.17362 6.80658C6.14917 6.7911 6.12902 6.76968 6.11505 6.74433C6.10108 6.71898 6.09373 6.69051 6.0937 6.66156V2.03125C6.0937 1.75775 5.98505 1.49544 5.79166 1.30205C5.59826 1.10865 5.33596 1 5.06245 1C4.78895 1 4.52665 1.10865 4.33325 1.30205C4.13985 1.49544 4.0312 1.75775 4.0312 2.03125V6.66156C4.03116 6.69045 4.02383 6.71887 4.0099 6.74418C3.99597 6.76949 3.97588 6.79087 3.9515 6.80637C3.64603 7.00534 3.39778 7.28059 3.23128 7.60489C3.06477 7.9292 2.98578 8.29134 3.0021 8.65553C3.02668 9.19373 3.26089 9.70095 3.65462 10.0687C4.04835 10.4365 4.57035 10.6355 5.10898 10.6234C5.64761 10.6112 6.1601 10.3888 6.53684 10.0037C6.91358 9.61853 7.12467 9.10126 7.12495 8.5625C7.1251 8.21376 7.03817 7.87049 6.87204 7.56386C6.70591 7.25723 6.46584 6.99693 6.17362 6.80658Z" stroke="#858585" stroke-width="0.5" stroke-miterlimit="10" stroke-linecap="round"/>
<path d="M5.5 9.28125C6.06954 9.28125 6.53125 8.81954 6.53125 8.25C6.53125 7.68046 6.06954 7.21875 5.5 7.21875C4.93046 7.21875 4.46875 7.68046 4.46875 8.25C4.46875 8.81954 4.93046 9.28125 5.5 9.28125Z" fill="#858585"/>
</svg>
